<svg xmlns="http://www.w3.org/2000/svg" width="121" height="33" viewBox="0 0 121 33"><g><g><path fill="#fff" d="M104.083 32.344c.476.181.946.312 1.41.391.465.08.924.119 1.378.119 1.677 0 3.128-.459 4.352-1.377a7.106 7.106 0 0 0 2.55-3.587l6.8-20.74h-5.1l-3.57 13.192-4.148-13.192h-5.61l6.8 17.85c-.295 1.179-.624 1.995-.986 2.448-.363.453-.873.68-1.53.68a6.4 6.4 0 0 1-1.071-.102 7.948 7.948 0 0 1-1.275-.34zM92.627 20.546c0 1.541.419 2.72 1.258 3.536.838.816 2.04 1.224 3.604 1.224.77 0 1.598-.09 2.482-.272.884-.181 1.666-.43 2.346-.748l-.714-4.08a3.325 3.325 0 0 1-.901.357c-.33.08-.63.119-.901.119-1.156 0-1.734-.68-1.734-2.04V.18h-5.44zm-3.33-.816a7.723 7.723 0 0 1-1.123.442c-.43.136-.85.204-1.258.204-.453 0-.827-.13-1.122-.391-.294-.26-.442-.686-.442-1.275v-7.446h3.638V7.15h-3.638V1.472h-5.44V7.15h-2.278v4.114h2.278v9.316c0 .861.13 1.598.391 2.21.261.612.618 1.105 1.071 1.479.454.374.98.646 1.581.816.601.17 1.241.255 1.921.255.975 0 1.944-.136 2.907-.408a21.71 21.71 0 0 0 2.567-.884zM76.286 6.912a1.732 1.732 0 0 0-.341-.034h-.544c-1.09.023-2.116.374-3.08 1.054s-1.753 1.62-2.365 2.822V7.15h-5.003V25H70.4V14.29c.477-.816 1.248-1.428 2.314-1.836 1.066-.408 2.258-.623 3.573-.646zm-27.48 7.293a4.57 4.57 0 0 1 .832-1.479 3.703 3.703 0 0 1 2.84-1.292c1.133 0 2.073.425 2.821 1.275.748.85 1.122 1.978 1.122 3.383 0 .68-.102 1.309-.306 1.887a4.57 4.57 0 0 1-.833 1.479 3.752 3.752 0 0 1-1.24.952 3.59 3.59 0 0 1-1.565.34c-1.156 0-2.108-.425-2.856-1.275-.748-.85-1.122-1.978-1.122-3.383 0-.68.102-1.309.306-1.887zm7.734 10.387c1.19-.499 2.193-1.173 3.01-2.023a8.54 8.54 0 0 0 1.852-2.958 9.97 9.97 0 0 0 .63-3.519 9.736 9.736 0 0 0-.647-3.519 8.754 8.754 0 0 0-1.87-2.958c-.816-.85-1.813-1.53-2.992-2.04-1.178-.51-2.527-.765-4.046-.765-1.518 0-2.873.255-4.063.765-1.19.51-2.193 1.19-3.009 2.04a8.54 8.54 0 0 0-1.853 2.958 9.97 9.97 0 0 0-.629 3.519c0 1.224.21 2.397.63 3.519a8.54 8.54 0 0 0 1.852 2.958c.816.85 1.82 1.524 3.01 2.023 1.19.499 2.544.748 4.062.748 1.519 0 2.873-.25 4.063-.748zM40.148 13.576c0-.77-.068-1.558-.204-2.363a6.034 6.034 0 0 0-.8-2.176c-.396-.646-.963-1.179-1.7-1.598-.738-.42-1.707-.629-2.91-.629-1.292 0-2.477.289-3.554.867a6.788 6.788 0 0 0-2.603 2.465V.18h-5.443V25h5.443V14.766a4.4 4.4 0 0 1 .68-1.292c.296-.385.619-.72.97-1.003a4.176 4.176 0 0 1 1.089-.646 2.85 2.85 0 0 1 1.037-.221c.794 0 1.418.272 1.872.816.453.544.68 1.394.68 2.55V25h5.443zM19.162 3.306a28.402 28.402 0 0 0-1.785-.95 16.76 16.76 0 0 0-2.091-.85c-.748-.25-1.53-.453-2.346-.612a12.978 12.978 0 0 0-2.482-.238c-1.201 0-2.34.17-3.417.51a8.436 8.436 0 0 0-2.839 1.512 7.263 7.263 0 0 0-1.938 2.464c-.476.974-.714 2.096-.714 3.365 0 .906.13 1.7.391 2.379a5 5 0 0 0 1.19 1.801c.533.521 1.207.98 2.023 1.377.816.396 1.78.764 2.89 1.104.335.1.661.196.976.288l1.702.495c.568.175 1.07.361 1.504.56.521.237.93.504 1.224.798.295.295.442.669.442 1.122 0 1.2-.986 1.801-2.958 1.801-.93 0-1.847-.125-2.754-.374a18.93 18.93 0 0 1-2.465-.85 13.246 13.246 0 0 1-1.853-.951c-.499-.317-.793-.533-.884-.646L.53 22.271a14.36 14.36 0 0 0 2.295 1.258c.827.362 1.683.674 2.567.934a19.687 19.687 0 0 0 5.44.799c1.156 0 2.278-.13 3.366-.39 1.088-.261 2.051-.68 2.89-1.258a6.447 6.447 0 0 0 2.023-2.277c.51-.94.765-2.09.765-3.45 0-1.11-.176-2.062-.527-2.855a5.645 5.645 0 0 0-1.496-2.022c-.646-.555-1.434-1.02-2.363-1.393-.93-.374-1.972-.72-3.128-1.037l-.805-.219-1.405-.393c-.635-.181-1.162-.38-1.581-.595-.42-.215-.737-.458-.952-.73-.215-.272-.323-.612-.323-1.02 0-1.337.997-2.005 2.992-2.005.725 0 1.45.102 2.176.306.725.204 1.394.442 2.006.714.612.271 1.122.532 1.53.781.408.25.646.42.714.51z"/></g></g></svg>